<?xml version="1.0" encoding="UTF-8" standalone="no"?>
<!DOCTYPE svg PUBLIC "-//W3C//DTD SVG 1.1//EN"
 "http://www.w3.org/Graphics/SVG/1.1/DTD/svg11.dtd">
<!-- Generated by graphviz version 10.0.1 (20240210.2158)
 -->
<!-- Pages: 1 -->
<svg width="1023pt" height="162pt"
 viewBox="0.00 0.00 1022.75 161.50" xmlns="http://www.w3.org/2000/svg" xmlns:xlink="http://www.w3.org/1999/xlink">
<g id="graph0" class="graph" transform="scale(1 1) rotate(0) translate(4 157.5)">
<polygon fill="white" stroke="none" points="-4,4 -4,-157.5 1018.75,-157.5 1018.75,4 -4,4"/>
<!-- join -->
<g id="node1" class="node">
<title>join</title>
<path fill="none" stroke="black" d="M560.5,-77.75C560.5,-77.75 577,-77.75 577,-77.75 580.75,-77.75 584.5,-81.5 584.5,-85.25 584.5,-85.25 584.5,-92.75 584.5,-92.75 584.5,-96.5 580.75,-100.25 577,-100.25 577,-100.25 560.5,-100.25 560.5,-100.25 556.75,-100.25 553,-96.5 553,-92.75 553,-92.75 553,-85.25 553,-85.25 553,-81.5 556.75,-77.75 560.5,-77.75"/>
<text text-anchor="start" x="559.75" y="-83.95" font-family="Times,serif" font-size="14.00">left</text>
<path fill="none" stroke="black" d="M560.5,-53.25C560.5,-53.25 577,-53.25 577,-53.25 580.75,-53.25 584.5,-57 584.5,-60.75 584.5,-60.75 584.5,-68.25 584.5,-68.25 584.5,-72 580.75,-75.75 577,-75.75 577,-75.75 560.5,-75.75 560.5,-75.75 556.75,-75.75 553,-72 553,-68.25 553,-68.25 553,-60.75 553,-60.75 553,-57 556.75,-53.25 560.5,-53.25"/>
<text text-anchor="start" x="556" y="-59.45" font-family="Times,serif" font-size="14.00">right</text>
<text text-anchor="start" x="623.25" y="-88.2" font-family="Times,serif" font-size="14.00">join</text>
<text text-anchor="start" x="622.5" y="-71.7" font-family="Times,serif" font-size="14.00">Join</text>
<text text-anchor="start" x="592.5" y="-55.2" font-family="Times,serif" font-size="14.00">JoinStrategy &#160;&#160;&#160;</text>
<path fill="none" stroke="black" d="M695,-53.25C695,-53.25 710.75,-53.25 710.75,-53.25 716.75,-53.25 722.75,-59.25 722.75,-65.25 722.75,-65.25 722.75,-88.25 722.75,-88.25 722.75,-94.25 716.75,-100.25 710.75,-100.25 710.75,-100.25 695,-100.25 695,-100.25 689,-100.25 683,-94.25 683,-88.25 683,-88.25 683,-65.25 683,-65.25 683,-59.25 689,-53.25 695,-53.25"/>
<text text-anchor="start" x="686" y="-71.7" font-family="Times,serif" font-size="14.00">joined</text>
<path fill="none" stroke="black" d="M558,-46.25C558,-46.25 717.75,-46.25 717.75,-46.25 723.75,-46.25 729.75,-52.25 729.75,-58.25 729.75,-58.25 729.75,-95.25 729.75,-95.25 729.75,-101.25 723.75,-107.25 717.75,-107.25 717.75,-107.25 558,-107.25 558,-107.25 552,-107.25 546,-101.25 546,-95.25 546,-95.25 546,-58.25 546,-58.25 546,-52.25 552,-46.25 558,-46.25"/>
</g>
<!-- skitter/bio/print#1 -->
<g id="node2" class="node">
<title>skitter/bio/print#1</title>
<path fill="none" stroke="black" d="M793,-54C793,-54 797.25,-54 797.25,-54 799.38,-54 801.5,-56.12 801.5,-58.25 801.5,-58.25 801.5,-95.25 801.5,-95.25 801.5,-97.38 799.38,-99.5 797.25,-99.5 797.25,-99.5 793,-99.5 793,-99.5 790.88,-99.5 788.75,-97.38 788.75,-95.25 788.75,-95.25 788.75,-58.25 788.75,-58.25 788.75,-56.12 790.88,-54 793,-54"/>
<text text-anchor="start" x="791.75" y="-71.7" font-family="Times,serif" font-size="14.00">_</text>
<text text-anchor="start" x="845.5" y="-88.2" font-family="Times,serif" font-size="14.00">skitter/bio/print#1</text>
<text text-anchor="start" x="848.12" y="-71.7" font-family="Times,serif" font-size="14.00">Skitter.BIO.Print</text>
<text text-anchor="start" x="809.5" y="-55.2" font-family="Times,serif" font-size="14.00">Skitter.BIS.ImmutableLocal &#160;&#160;&#160;</text>
<path fill="none" stroke="black" d="M991.25,-54C991.25,-54 995.5,-54 995.5,-54 997.62,-54 999.75,-56.12 999.75,-58.25 999.75,-58.25 999.75,-95.25 999.75,-95.25 999.75,-97.38 997.62,-99.5 995.5,-99.5 995.5,-99.5 991.25,-99.5 991.25,-99.5 989.12,-99.5 987,-97.38 987,-95.25 987,-95.25 987,-58.25 987,-58.25 987,-56.12 989.12,-54 991.25,-54"/>
<text text-anchor="start" x="990" y="-71.7" font-family="Times,serif" font-size="14.00">_</text>
<path fill="none" stroke="black" d="M793.75,-47C793.75,-47 994.75,-47 994.75,-47 1000.75,-47 1006.75,-53 1006.75,-59 1006.75,-59 1006.75,-94.5 1006.75,-94.5 1006.75,-100.5 1000.75,-106.5 994.75,-106.5 994.75,-106.5 793.75,-106.5 793.75,-106.5 787.75,-106.5 781.75,-100.5 781.75,-94.5 781.75,-94.5 781.75,-59 781.75,-59 781.75,-53 787.75,-47 793.75,-47"/>
</g>
<!-- join&#45;&gt;skitter/bio/print#1 -->
<g id="edge1" class="edge">
<title>join:out_joined&#45;&gt;skitter/bio/print#1:in__</title>
<path fill="none" stroke="black" d="M723.88,-76.75C747.86,-76.75 756.53,-76.75 775.97,-76.75"/>
<polygon fill="black" stroke="black" points="775.74,-80.25 785.74,-76.75 775.74,-73.25 775.74,-80.25"/>
</g>
<!-- top#skitter/bio/tcp_source#1 -->
<g id="node3" class="node">
<title>top#skitter/bio/tcp_source#1</title>
<text text-anchor="start" x="23.88" y="-131.2" font-family="Times,serif" font-size="14.00">top#skitter/bio/tcp_source#1</text>
<text text-anchor="start" x="37" y="-114.7" font-family="Times,serif" font-size="14.00">Skitter.BIO.TCPSource</text>
<text text-anchor="start" x="22.75" y="-98.2" font-family="Times,serif" font-size="14.00">Skitter.BIS.PassiveSource &#160;&#160;&#160;</text>
<path fill="none" stroke="black" d="M191.75,-97C191.75,-97 196,-97 196,-97 198.12,-97 200.25,-99.12 200.25,-101.25 200.25,-101.25 200.25,-138.25 200.25,-138.25 200.25,-140.38 198.12,-142.5 196,-142.5 196,-142.5 191.75,-142.5 191.75,-142.5 189.62,-142.5 187.5,-140.38 187.5,-138.25 187.5,-138.25 187.5,-101.25 187.5,-101.25 187.5,-99.12 189.62,-97 191.75,-97"/>
<text text-anchor="start" x="190.5" y="-114.7" font-family="Times,serif" font-size="14.00">_</text>
<path fill="none" stroke="black" d="M29.75,-90C29.75,-90 195.25,-90 195.25,-90 201.25,-90 207.25,-96 207.25,-102 207.25,-102 207.25,-137.5 207.25,-137.5 207.25,-143.5 201.25,-149.5 195.25,-149.5 195.25,-149.5 29.75,-149.5 29.75,-149.5 23.75,-149.5 17.75,-143.5 17.75,-137.5 17.75,-137.5 17.75,-102 17.75,-102 17.75,-96 23.75,-90 29.75,-90"/>
</g>
<!-- top#skitter/bio/map#1 -->
<g id="node4" class="node">
<title>top#skitter/bio/map#1</title>
<path fill="none" stroke="black" d="M280.25,-97C280.25,-97 284.5,-97 284.5,-97 286.62,-97 288.75,-99.12 288.75,-101.25 288.75,-101.25 288.75,-138.25 288.75,-138.25 288.75,-140.38 286.62,-142.5 284.5,-142.5 284.5,-142.5 280.25,-142.5 280.25,-142.5 278.12,-142.5 276,-140.38 276,-138.25 276,-138.25 276,-101.25 276,-101.25 276,-99.12 278.12,-97 280.25,-97"/>
<text text-anchor="start" x="279" y="-114.7" font-family="Times,serif" font-size="14.00">_</text>
<text text-anchor="start" x="321.5" y="-131.2" font-family="Times,serif" font-size="14.00">top#skitter/bio/map#1</text>
<text text-anchor="start" x="335.75" y="-114.7" font-family="Times,serif" font-size="14.00">Skitter.BIO.Map</text>
<text text-anchor="start" x="296.75" y="-98.2" font-family="Times,serif" font-size="14.00">Skitter.BIS.ImmutableLocal &#160;&#160;&#160;</text>
<path fill="none" stroke="black" d="M478.5,-97C478.5,-97 482.75,-97 482.75,-97 484.88,-97 487,-99.12 487,-101.25 487,-101.25 487,-138.25 487,-138.25 487,-140.38 484.88,-142.5 482.75,-142.5 482.75,-142.5 478.5,-142.5 478.5,-142.5 476.38,-142.5 474.25,-140.38 474.25,-138.25 474.25,-138.25 474.25,-101.25 474.25,-101.25 474.25,-99.12 476.38,-97 478.5,-97"/>
<text text-anchor="start" x="477.25" y="-114.7" font-family="Times,serif" font-size="14.00">_</text>
<path fill="none" stroke="black" d="M281,-90C281,-90 482,-90 482,-90 488,-90 494,-96 494,-102 494,-102 494,-137.5 494,-137.5 494,-143.5 488,-149.5 482,-149.5 482,-149.5 281,-149.5 281,-149.5 275,-149.5 269,-143.5 269,-137.5 269,-137.5 269,-102 269,-102 269,-96 275,-90 281,-90"/>
</g>
<!-- top#skitter/bio/tcp_source#1&#45;&gt;top#skitter/bio/map#1 -->
<g id="edge2" class="edge">
<title>top#skitter/bio/tcp_source#1:out__&#45;&gt;top#skitter/bio/map#1:in__</title>
<path fill="none" stroke="black" d="M201.5,-119.75C229.76,-119.75 239.56,-119.75 263.06,-119.75"/>
<polygon fill="black" stroke="black" points="262.99,-123.25 272.99,-119.75 262.99,-116.25 262.99,-123.25"/>
</g>
<!-- top#skitter/bio/map#1&#45;&gt;join -->
<g id="edge3" class="edge">
<title>top#skitter/bio/map#1:out__&#45;&gt;join:in_left</title>
<path fill="none" stroke="black" d="M488.5,-119.75C515.57,-119.75 519.76,-96.65 540.58,-90.33"/>
<polygon fill="black" stroke="black" points="540.96,-93.81 550.38,-88.96 539.99,-86.88 540.96,-93.81"/>
</g>
<!-- bottom#skitter/bio/tcp_source#1 -->
<g id="node5" class="node">
<title>bottom#skitter/bio/tcp_source#1</title>
<text text-anchor="start" x="13" y="-45.2" font-family="Times,serif" font-size="14.00">bottom#skitter/bio/tcp_source#1</text>
<text text-anchor="start" x="37" y="-28.7" font-family="Times,serif" font-size="14.00">Skitter.BIO.TCPSource</text>
<text text-anchor="start" x="22.75" y="-12.2" font-family="Times,serif" font-size="14.00">Skitter.BIS.PassiveSource &#160;&#160;&#160;</text>
<path fill="none" stroke="black" d="M201.5,-11C201.5,-11 205.75,-11 205.75,-11 207.88,-11 210,-13.12 210,-15.25 210,-15.25 210,-52.25 210,-52.25 210,-54.38 207.88,-56.5 205.75,-56.5 205.75,-56.5 201.5,-56.5 201.5,-56.5 199.38,-56.5 197.25,-54.38 197.25,-52.25 197.25,-52.25 197.25,-15.25 197.25,-15.25 197.25,-13.12 199.38,-11 201.5,-11"/>
<text text-anchor="start" x="200.25" y="-28.7" font-family="Times,serif" font-size="14.00">_</text>
<path fill="none" stroke="black" d="M20,-4C20,-4 205,-4 205,-4 211,-4 217,-10 217,-16 217,-16 217,-51.5 217,-51.5 217,-57.5 211,-63.5 205,-63.5 205,-63.5 20,-63.5 20,-63.5 14,-63.5 8,-57.5 8,-51.5 8,-51.5 8,-16 8,-16 8,-10 14,-4 20,-4"/>
</g>
<!-- bottom#skitter/bio/map#1 -->
<g id="node6" class="node">
<title>bottom#skitter/bio/map#1</title>
<path fill="none" stroke="black" d="M280.25,-11C280.25,-11 284.5,-11 284.5,-11 286.62,-11 288.75,-13.12 288.75,-15.25 288.75,-15.25 288.75,-52.25 288.75,-52.25 288.75,-54.38 286.62,-56.5 284.5,-56.5 284.5,-56.5 280.25,-56.5 280.25,-56.5 278.12,-56.5 276,-54.38 276,-52.25 276,-52.25 276,-15.25 276,-15.25 276,-13.12 278.12,-11 280.25,-11"/>
<text text-anchor="start" x="279" y="-28.7" font-family="Times,serif" font-size="14.00">_</text>
<text text-anchor="start" x="310.62" y="-45.2" font-family="Times,serif" font-size="14.00">bottom#skitter/bio/map#1</text>
<text text-anchor="start" x="335.75" y="-28.7" font-family="Times,serif" font-size="14.00">Skitter.BIO.Map</text>
<text text-anchor="start" x="296.75" y="-12.2" font-family="Times,serif" font-size="14.00">Skitter.BIS.ImmutableLocal &#160;&#160;&#160;</text>
<path fill="none" stroke="black" d="M478.5,-11C478.5,-11 482.75,-11 482.75,-11 484.88,-11 487,-13.12 487,-15.25 487,-15.25 487,-52.25 487,-52.25 487,-54.38 484.88,-56.5 482.75,-56.5 482.75,-56.5 478.5,-56.5 478.5,-56.5 476.38,-56.5 474.25,-54.38 474.25,-52.25 474.25,-52.25 474.25,-15.25 474.25,-15.25 474.25,-13.12 476.38,-11 478.5,-11"/>
<text text-anchor="start" x="477.25" y="-28.7" font-family="Times,serif" font-size="14.00">_</text>
<path fill="none" stroke="black" d="M281,-4C281,-4 482,-4 482,-4 488,-4 494,-10 494,-16 494,-16 494,-51.5 494,-51.5 494,-57.5 488,-63.5 482,-63.5 482,-63.5 281,-63.5 281,-63.5 275,-63.5 269,-57.5 269,-51.5 269,-51.5 269,-16 269,-16 269,-10 275,-4 281,-4"/>
</g>
<!-- bottom#skitter/bio/tcp_source#1&#45;&gt;bottom#skitter/bio/map#1 -->
<g id="edge4" class="edge">
<title>bottom#skitter/bio/tcp_source#1:out__&#45;&gt;bottom#skitter/bio/map#1:in__</title>
<path fill="none" stroke="black" d="M211.5,-33.75C235.23,-33.75 243.88,-33.75 263.02,-33.75"/>
<polygon fill="black" stroke="black" points="262.99,-37.25 272.99,-33.75 262.99,-30.25 262.99,-37.25"/>
</g>
<!-- bottom#skitter/bio/map#1&#45;&gt;join -->
<g id="edge5" class="edge">
<title>bottom#skitter/bio/map#1:out__&#45;&gt;join:in_right</title>
<path fill="none" stroke="black" d="M488.5,-33.75C515.57,-33.75 519.76,-56.85 540.58,-63.17"/>
<polygon fill="black" stroke="black" points="539.99,-66.62 550.38,-64.54 540.96,-59.69 539.99,-66.62"/>
</g>
</g>
</svg>
